  0
SECTION
  2
HEADER
  9
$ACADVER
  1
AC1021
  9
$ACADMAINTVER
 70
     1
  9
$DWGCODEPAGE
  3
ANSI_936
  9
$LASTSAVEDBY
  1
Administrator
  9
$INSBASE
 10
0.0
 20
0.0
 30
0.0
  9
$EXTMIN
 10
859.8814447455906
 20
271.1321310068701
 30
0.0
  9
$EXTMAX
 10
1590.033250198543
 20
991.8845777133745
 30
0.0
  9
$LIMMIN
 10
0.0
 20
0.0
  9
$LIMMAX
 10
420.0
 20
297.0
  9
$ORTHOMODE
 70
     0
  9
$REGENMODE
 70
     1
  9
$FILLMODE
 70
     1
  9
$QTEXTMODE
 70
     0
  9
$MIRRTEXT
 70
     0
  9
$LTSCALE
 40
1.0
  9
$ATTMODE
 70
     1
  9
$TEXTSIZE
 40
2.5
  9
$TRACEWID
 40
1.0
  9
$TEXTSTYLE
  7
Standard
  9
$CLAYER
  8
0
  9
$CELTYPE
  6
ByLayer
  9
$CECOLOR
 62
   256
  9
$CELTSCALE
 40
1.0
  9
$DISPSILH
 70
     0
  9
$DIMSCALE
 40
1.0
  9
$DIMASZ
 40
2.5
  9
$DIMEXO
 40
0.625
  9
$DIMDLI
 40
3.75
  9
$DIMRND
 40
0.0
  9
$DIMDLE
 40
0.0
  9
$DIMEXE
 40
1.25
  9
$DIMTP
 40
0.0
  9
$DIMTM
 40
0.0
  9
$DIMTXT
 40
2.5
  9
$DIMCEN
 40
2.5
  9
$DIMTSZ
 40
0.0
  9
$DIMTOL
 70
     0
  9
$DIMLIM
 70
     0
  9
$DIMTIH
 70
     0
  9
$DIMTOH
 70
     0
  9
$DIMSE1
 70
     0
  9
$DIMSE2
 70
     0
  9
$DIMTAD
 70
     1
  9
$DIMZIN
 70
     8
  9
$DIMBLK
  1

  9
$DIMASO
 70
     1
  9
$DIMSHO
 70
     1
  9
$DIMPOST
  1

  9
$DIMAPOST
  1

  9
$DIMALT
 70
     0
  9
$DIMALTD
 70
     3
  9
$DIMALTF
 40
0.03937007874016
  9
$DIMLFAC
 40
1.0
  9
$DIMTOFL
 70
     1
  9
$DIMTVP
 40
0.0
  9
$DIMTIX
 70
     0
  9
$DIMSOXD
 70
     0
  9
$DIMSAH
 70
     0
  9
$DIMBLK1
  1

  9
$DIMBLK2
  1

  9
$DIMSTYLE
  2
ISO-25
  9
$DIMCLRD
 70
     0
  9
$DIMCLRE
 70
     0
  9
$DIMCLRT
 70
     0
  9
$DIMTFAC
 40
1.0
  9
$DIMGAP
 40
0.625
  9
$DIMJUST
 70
     0
  9
$DIMSD1
 70
     0
  9
$DIMSD2
 70
     0
  9
$DIMTOLJ
 70
     0
  9
$DIMTZIN
 70
     8
  9
$DIMALTZ
 70
     0
  9
$DIMALTTZ
 70
     0
  9
$DIMUPT
 70
     0
  9
$DIMDEC
 70
     2
  9
$DIMTDEC
 70
     2
  9
$DIMALTU
 70
     2
  9
$DIMALTTD
 70
     3
  9
$DIMTXSTY
  7
Standard
  9
$DIMAUNIT
 70
     0
  9
$DIMADEC
 70
     0
  9
$DIMALTRND
 40
0.0
  9
$DIMAZIN
 70
     0
  9
$DIMDSEP
 70
    44
  9
$DIMATFIT
 70
     3
  9
$DIMFRAC
 70
     0
  9
$DIMLDRBLK
  1

  9
$DIMLUNIT
 70
     2
  9
$DIMLWD
 70
    -2
  9
$DIMLWE
 70
    -2
  9
$DIMTMOVE
 70
     0
  9
$DIMFXL
 40
1.0
  9
$DIMFXLON
 70
     0
  9
$DIMJOGANG
 40
0.7853981633974483
  9
$DIMTFILL
 70
     0
  9
$DIMTFILLCLR
 70
     0
  9
$DIMARCSYM
 70
     0
  9
$DIMLTYPE
  6

  9
$DIMLTEX1
  6

  9
$DIMLTEX2
  6

  9
$LUNITS
 70
     2
  9
$LUPREC
 70
     4
  9
$SKETCHINC
 40
1.0
  9
$FILLETRAD
 40
0.0
  9
$AUNITS
 70
     0
  9
$AUPREC
 70
     0
  9
$MENU
  1
.
  9
$ELEVATION
 40
0.0
  9
$PELEVATION
 40
0.0
  9
$THICKNESS
 40
0.0
  9
$LIMCHECK
 70
     0
  9
$CHAMFERA
 40
0.0
  9
$CHAMFERB
 40
0.0
  9
$CHAMFERC
 40
0.0
  9
$CHAMFERD
 40
0.0
  9
$SKPOLY
 70
     0
  9
$TDCREATE
 40
2459436.466847442
  9
$TDUCREATE
 40
2459436.133514109
  9
$TDUPDATE
 40
2459436.467357211
  9
$TDUUPDATE
 40
2459436.134023877
  9
$TDINDWG
 40
0.0005099769
  9
$TDUSRTIMER
 40
0.0005099421
  9
$USRTIMER
 70
     1
  9
$ANGBASE
 50
0.0
  9
$ANGDIR
 70
     0
  9
$PDMODE
 70
     0
  9
$PDSIZE
 40
0.0
  9
$PLINEWID
 40
0.0
  9
$SPLFRAME
 70
     0
  9
$SPLINETYPE
 70
     6
  9
$SPLINESEGS
 70
     8
  9
$HANDSEED
  5
24E
  9
$SURFTAB1
 70
     6
  9
$SURFTAB2
 70
     6
  9
$SURFTYPE
 70
     6
  9
$SURFU
 70
     6
  9
$SURFV
 70
     6
  9
$UCSBASE
  2

  9
$UCSNAME
  2

  9
$UCSORG
 10
0.0
 20
0.0
 30
0.0
  9
$UCSXDIR
 10
1.0
 20
0.0
 30
0.0
  9
$UCSYDIR
 10
0.0
 20
1.0
 30
0.0
  9
$UCSORTHOREF
  2

  9
$UCSORTHOVIEW
 70
     0
  9
$UCSORGTOP
 10
0.0
 20
0.0
 30
0.0
  9
$UCSORGBOTTOM
 10
0.0
 20
0.0
 30
0.0
  9
$UCSORGLEFT
 10
0.0
 20
0.0
 30
0.0
  9
$UCSORGRIGHT
 10
0.0
 20
0.0
 30
0.0
  9
$UCSORGFRONT
 10
0.0
 20
0.0
 30
0.0
  9
$UCSORGBACK
 10
0.0
 20
0.0
 30
0.0
  9
$PUCSBASE
  2

  9
$PUCSNAME
  2

  9
$PUCSORG
 10
0.0
 20
0.0
 30
0.0
  9
$PUCSXDIR
 10
1.0
 20
0.0
 30
0.0
  9
$PUCSYDIR
 10
0.0
 20
1.0
 30
0.0
  9
$PUCSORTHOREF
  2

  9
$PUCSORTHOVIEW
 70
     0
  9
$PUCSORGTOP
 10
0.0
 20
0.0
 30
0.0
  9
$PUCSORGBOTTOM
 10
0.0
 20
0.0
 30
0.0
  9
$PUCSORGLEFT
 10
0.0
 20
0.0
 30
0.0
  9
$PUCSORGRIGHT
 10
0.0
 20
0.0
 30
0.0
  9
$PUCSORGFRONT
 10
0.0
 20
0.0
 30
0.0
  9
$PUCSORGBACK
 10
0.0
 20
0.0
 30
0.0
  9
$USERI1
 70
     0
  9
$USERI2
 70
     0
  9
$USERI3
 70
     0
  9
$USERI4
 70
     0
  9
$USERI5
 70
     0
  9
$USERR1
 40
0.0
  9
$USERR2
 40
0.0
  9
$USERR3
 40
0.0
  9
$USERR4
 40
0.0
  9
$USERR5
 40
0.0
  9
$WORLDVIEW
 70
     1
  9
$SHADEDGE
 70
     3
  9
$SHADEDIF
 70
    70
  9
$TILEMODE
 70
     1
  9
$MAXACTVP
 70
    64
  9
$PINSBASE
 10
0.0
 20
0.0
 30
0.0
  9
$PLIMCHECK
 70
     0
  9
$PEXTMIN
 10
0.0
 20
0.0
 30
0.0
  9
$PEXTMAX
 10
0.0
 20
0.0
 30
0.0
  9
$PLIMMIN
 10
0.0
 20
0.0
  9
$PLIMMAX
 10
12.0
 20
9.0
  9
$UNITMODE
 70
     0
  9
$VISRETAIN
 70
     1
  9
$PLINEGEN
 70
     0
  9
$PSLTSCALE
 70
     1
  9
$TREEDEPTH
 70
  3020
  9
$CMLSTYLE
  2
Standard
  9
$CMLJUST
 70
     0
  9
$CMLSCALE
 40
20.0
  9
$PROXYGRAPHICS
 70
     1
  9
$MEASUREMENT
 70
     1
  9
$CELWEIGHT
370
    -1
  9
$ENDCAPS
280
     0
  9
$JOINSTYLE
280
     0
  9
$LWDISPLAY
290
     0
  9
$INSUNITS
 70
     4
  9
$HYPERLINKBASE
  1

  9
$STYLESHEET
  1

  9
$XEDIT
290
     1
  9
$CEPSNTYPE
380
     0
  9
$PSTYLEMODE
290
     1
  9
$FINGERPRINTGUID
  2
{74A8924A-1853-42B5-A465-437F329CDF5E}
  9
$VERSIONGUID
  2
{3CF241E1-A0C0-4803-AB40-CA41BD5F4C52}
  9
$EXTNAMES
290
     1
  9
$PSVPSCALE
 40
0.0
  9
$OLESTARTUP
290
     0
  9
$SORTENTS
280
   127
  9
$INDEXCTL
280
     0
  9
$HIDETEXT
280
     1
  9
$XCLIPFRAME
290
     0
  9
$HALOGAP
280
     0
  9
$OBSCOLOR
 70
   257
  9
$OBSLTYPE
280
     0
  9
$INTERSECTIONDISPLAY
280
     0
  9
$INTERSECTIONCOLOR
 70
   257
  9
$DIMASSOC
280
     2
  9
$PROJECTNAME
  1

  9
$CAMERADISPLAY
290
     0
  9
$LENSLENGTH
 40
50.0
  9
$CAMERAHEIGHT
 40
0.0
  9
$STEPSPERSEC
 40
2.0
  9
$STEPSIZE
 40
6.0
  9
$3DDWFPREC
 40
2.0
  9
$PSOLWIDTH
 40
5.0
  9
$PSOLHEIGHT
 40
80.0
  9
$LOFTANG1
 40
1.570796326794896
  9
$LOFTANG2
 40
1.570796326794896
  9
$LOFTMAG1
 40
0.0
  9
$LOFTMAG2
 40
0.0
  9
$LOFTPARAM
 70
     7
  9
$LOFTNORMALS
280
     1
  9
$LATITUDE
 40
37.795
  9
$LONGITUDE
 40
-122.394
  9
$NORTHDIRECTION
 40
0.0
  9
$TIMEZONE
 70
 -8000
  9
$LIGHTGLYPHDISPLAY
280
     1
  9
$TILEMODELIGHTSYNCH
280
     1
  9
$CMATERIAL
347
ED
  9
$SOLIDHIST
280
     1
  9
$SHOWHIST
280
     1
  9
$DWFFRAME
280
     2
  9
$DGNFRAME
280
     0
  9
$REALWORLDSCALE
290
     1
  9
$INTERFERECOLOR
 62
     1
  9
$INTERFEREOBJVS
345
FA
  9
$INTERFEREVPVS
346
F7
  9
$CSHADOW
280
     0
  9
$SHADOWPLANELOCATION
 40
0.0
  0
ENDSEC
  0
SECTION
  2
CLASSES
  0
CLASS
  1
ACDBDICTIONARYWDFLT
  2
AcDbDictionaryWithDefault
  3
ObjectDBX Classes
 90
        0
 91
        1
280
     0
281
     0
  0
CLASS
  1
DICTIONARYVAR
  2
AcDbDictionaryVar
  3
ObjectDBX Classes
 90
        0
 91
        3
280
     0
281
     0
  0
CLASS
  1
TABLESTYLE
  2
AcDbTableStyle
  3
ObjectDBX Classes
 90
     4095
 91
        1
280
     0
281
     0
  0
CLASS
  1
MATERIAL
  2
AcDbMaterial
  3
ObjectDBX Classes
 90
     1024
 91
        3
280
     0
281
     0
  0
CLASS
  1
VISUALSTYLE
  2
AcDbVisualStyle
  3
ObjectDBX Classes
 90
     4095
 91
       16
280
     0
281
     0
  0
CLASS
  1
SORTENTSTABLE
  2
AcDbSortentsTable
  3
ObjectDBX Classes
 90
        0
 91
        1
280
     0
281
     0
  0
ENDSEC
  0
SECTION
  2
TABLES
  0
TABLE
  2
VPORT
  5
8
330
0
100
AcDbSymbolTable
 70
     1
  0
VPORT
  5
EB
330
8
100
AcDbSymbolTableRecord
100
AcDbViewportTableRecord
  2
*Active
 70
     0
 10
0.0
 20
0.0
 11
1.0
 21
1.0
 12
1396.506970852922
 22
617.9617746645292
 13
0.0
 23
0.0
 14
10.0
 24
10.0
 15
10.0
 25
10.0
 16
0.0
 26
0.0
 36
1.0
 17
0.0
 27
0.0
 37
0.0
 40
707.7098578265563
 41
2.563941299790356
 42
50.0
 43
0.0
 44
0.0
 50
0.0
 51
0.0
 71
     0
 72
  1000
 73
     1
 74
     3
 75
     0
 76
     0
 77
     0
 78
     0
281
     0
 65
     1
110
0.0
120
0.0
130
0.0
111
1.0
121
0.0
131
0.0
112
0.0
122
1.0
132
0.0
 79
     0
146
0.0
348
F6
 60
     2
 61
     5
292
     1
282
     1
141
0.0
142
0.0
 63
   250
421
  3355443
  0
ENDTAB
  0
TABLE
  2
LTYPE
  5
5
330
0
100
AcDbSymbolTable
 70
     2
  0
LTYPE
  5
14
330
5
100
AcDbSymbolTableRecord
100
AcDbLinetypeTableRecord
  2
ByBlock
 70
     0
  3

 72
    65
 73
     0
 40
0.0
  0
LTYPE
  5
15
330
5
100
AcDbSymbolTableRecord
100
AcDbLinetypeTableRecord
  2
ByLayer
 70
     0
  3

 72
    65
 73
     0
 40
0.0
  0
LTYPE
  5
16
330
5
100
AcDbSymbolTableRecord
100
AcDbLinetypeTableRecord
  2
Continuous
 70
     0
  3
Solid line
 72
    65
 73
     0
 40
0.0
  0
LTYPE
  5
176
330
5
100
AcDbSymbolTableRecord
100
AcDbLinetypeTableRecord
  2
ACAD_ISO08W100
 70
     0
  3
ISO long-dash short-dash ____ __ ____ __ ____ _
 72
    65
 73
     4
 40
36.0
 49
24.0
 74
     0
 49
-3.0
 74
     0
 49
6.0
 74
     0
 49
-3.0
 74
     0
  0
ENDTAB
  0
TABLE
  2
LAYER
  5
2
102
{ACAD_XDICTIONARY
360
17F
102
}
330
0
100
AcDbSymbolTable
 70
     3
  0
LAYER
  5
10
330
2
100
AcDbSymbolTableRecord
100
AcDbLayerTableRecord
  2
0
 70
     0
 62
     7
  6
Continuous
370
    -3
390
F
347
EF
  0
LAYER
  5
177
330
2
100
AcDbSymbolTableRecord
100
AcDbLayerTableRecord
  2
Defpoints
 70
     0
 62
     7
  6
Continuous
290
     0
370
    -3
390
F
347
EF
  0
LAYER
  5
178
102
{ACAD_XDICTIONARY
360
179
102
}
330
2
100
AcDbSymbolTableRecord
100
AcDbLayerTableRecord
  2
标注
 70
     0
 62
     3
  6
Continuous
370
     5
390
F
347
EF
1001
AcAecLayerStandard
1000

1000

  0
ENDTAB
  0
TABLE
  2
STYLE
  5
3
330
0
100
AcDbSymbolTable
 70
     1
  0
STYLE
  5
11
330
3
100
AcDbSymbolTableRecord
100
AcDbTextStyleTableRecord
  2
Standard
 70
     0
 40
0.0
 41
1.0
 50
0.0
 71
     0
 42
2.5
  3
txt
  4
gbcbig.shx
  0
ENDTAB
  0
TABLE
  2
VIEW
  5
6
330
0
100
AcDbSymbolTable
 70
     0
  0
ENDTAB
  0
TABLE
  2
UCS
  5
7
330
0
100
AcDbSymbolTable
 70
     0
  0
ENDTAB
  0
TABLE
  2
APPID
  5
9
330
0
100
AcDbSymbolTable
 70
     6
  0
APPID
  5
12
330
9
100
AcDbSymbolTableRecord
100
AcDbRegAppTableRecord
  2
ACAD
 70
     0
  0
APPID
  5
9E
330
9
100
AcDbSymbolTableRecord
100
AcDbRegAppTableRecord
  2
ACAD_PSEXT
 70
     0
  0
APPID
  5
17B
330
9
100
AcDbSymbolTableRecord
100
AcDbRegAppTableRecord
  2
AcAecLayerStandard
 70
     0
  0
APPID
  5
17C
330
9
100
AcDbSymbolTableRecord
100
AcDbRegAppTableRecord
  2
ACAD_DSTYLE_DIMJAG
 70
     0
  0
APPID
  5
17D
330
9
100
AcDbSymbolTableRecord
100
AcDbRegAppTableRecord
  2
ACAD_DSTYLE_DIMTALN
 70
     0
  0
APPID
  5
17E
330
9
100
AcDbSymbolTableRecord
100
AcDbRegAppTableRecord
  2
ACAD_DSTYLE_DIMRADIAL_EXTENSION
 70
     0
  0
ENDTAB
  0
TABLE
  2
DIMSTYLE
  5
A
330
0
100
AcDbSymbolTable
 70
     1
100
AcDbDimStyleTable
 71
     1
340
27
  0
DIMSTYLE
105
27
330
A
100
AcDbSymbolTableRecord
100
AcDbDimStyleTableRecord
  2
ISO-25
 70
     0
 41
2.5
 42
0.625
 43
3.75
 44
1.25
 73
     0
 74
     0
 77
     1
 78
     8
140
2.5
141
2.5
143
0.03937007874016
147
0.625
171
     3
172
     1
271
     2
272
     2
274
     3
278
    44
283
     0
284
     8
340
11
  0
ENDTAB
  0
TABLE
  2
BLOCK_RECORD
  5
1
330
0
100
AcDbSymbolTable
 70
    16
  0
BLOCK_RECORD
  5
1F
330
1
100
AcDbSymbolTableRecord
100
AcDbBlockTableRecord
  2
*Model_Space
340
22
 70
     0
280
     1
281
     0
  0
BLOCK_RECORD
  5
D2
330
1
100
AcDbSymbolTableRecord
100
AcDbBlockTableRecord
  2
*Paper_Space
340
D3
 70
     0
280
     1
281
     0
  0
BLOCK_RECORD
  5
D6
330
1
100
AcDbSymbolTableRecord
100
AcDbBlockTableRecord
  2
*Paper_Space0
340
D7
 70
     0
280
     1
281
     0
  0
BLOCK_RECORD
  5
123
330
1
100
AcDbSymbolTableRecord
100
AcDbBlockTableRecord
  2
*D1
340
0
 70
     0
280
     1
281
     0
  0
BLOCK_RECORD
  5
12F
330
1
100
AcDbSymbolTableRecord
100
AcDbBlockTableRecord
  2
*D2
340
0
 70
     0
280
     1
281
     0
  0
BLOCK_RECORD
  5
13B
330
1
100
AcDbSymbolTableRecord
100
AcDbBlockTableRecord
  2
*D3
340
0
 70
     0
280
     1
281
     0
  0
BLOCK_RECORD
  5
144
330
1
100
AcDbSymbolTableRecord
100
AcDbBlockTableRecord
  2
*D4
340
0
 70
     0
280
     1
281
     0
  0
BLOCK_RECORD
  5
150
330
1
100
AcDbSymbolTableRecord
100
AcDbBlockTableRecord
  2
*D5
340
0
 70
     0
280
     1
281
     0
  0
BLOCK_RECORD
  5
15C
330
1
100
AcDbSymbolTableRecord
100
AcDbBlockTableRecord
  2
*D6
340
0
 70
     0
280
     1
281
     0
  0
BLOCK_RECORD
  5
168
330
1
100
AcDbSymbolTableRecord
100
AcDbBlockTableRecord
  2
*D7
340
0
 70
     0
280
     1
281
     0
  0
BLOCK_RECORD
  5
1C1
330
1
100
AcDbSymbolTableRecord
100
AcDbBlockTableRecord
  2
*D9
340
0
 70
     0
280
     1
281
     0
  0
BLOCK_RECORD
  5
1CD
330
1
100
AcDbSymbolTableRecord
100
AcDbBlockTableRecord
  2
*D10
340
0
 70
     0
280
     1
281
     0
  0
BLOCK_RECORD
  5
1D9
330
1
100
AcDbSymbolTableRecord
100
AcDbBlockTableRecord
  2
*D11
340
0
 70
     0
280
     1
281
     0
  0
BLOCK_RECORD
  5
1E2
330
1
100
AcDbSymbolTableRecord
100
AcDbBlockTableRecord
  2
*D12
340
0
 70
     0
280
     1
281
     0
  0
BLOCK_RECORD
  5
1EE
330
1
100
AcDbSymbolTableRecord
100
AcDbBlockTableRecord
  2
*D13
340
0
 70
     0
280
     1
281
     0
  0
BLOCK_RECORD
  5
1FA
330
1
100
AcDbSymbolTableRecord
100
AcDbBlockTableRecord
  2
*D14
340
0
 70
     0
280
     1
281
     0
  0
BLOCK_RECORD
  5
206
330
1
100
AcDbSymbolTableRecord
100
AcDbBlockTableRecord
  2
*D15
340
0
 70
     0
280
     1
281
     0
  0
ENDTAB
  0
ENDSEC
  0
SECTION
  2
BLOCKS
  0
BLOCK
  5
20
330
1F
100
AcDbEntity
  8
0
100
AcDbBlockBegin
  2
*Model_Space
 70
     0
 10
0.0
 20
0.0
 30
0.0
  3
*Model_Space
  1

  0
ENDBLK
  5
21
330
1F
100
AcDbEntity
  8
0
100
AcDbBlockEnd
  0
BLOCK
  5
D4
330
D2
100
AcDbEntity
 67
     1
  8
0
100
AcDbBlockBegin
  2
*Paper_Space
 70
     0
 10
0.0
 20
0.0
 30
0.0
  3
*Paper_Space
  1

  0
ENDBLK
  5
D5
330
D2
100
AcDbEntity
 67
     1
  8
0
100
AcDbBlockEnd
  0
BLOCK
  5
D8
330
D6
100
AcDbEntity
 67
     1
  8
0
100
AcDbBlockBegin
  2
*Paper_Space0
 70
     0
 10
0.0
 20
0.0
 30
0.0
  3
*Paper_Space0
  1

  0
ENDBLK
  5
D9
330
D6
100
AcDbEntity
 67
     1
  8
0
100
AcDbBlockEnd
  0
BLOCK
  5
124
330
123
100
AcDbEntity
  8
标注
100
AcDbBlockBegin
  2
*D1
 70
     1
 10
0.0
 20
0.0
 30
0.0
  3
*D1
  1
Acad:XRef
  0
LINE
  5
125
330
123
100
AcDbEntity
  8
标注
 62
     0
 48
2.0
370
    -2
100
AcDbLine
 10
5374.894397334291
 20
776.0574511816445
 30
0.0
 11
5374.894397334291
 21
889.2540039310999
 31
0.0
  0
LINE
  5
126
330
123
100
AcDbEntity
  8
标注
 62
     0
 48
2.0
370
    -2
100
AcDbLine
 10
4775.4821877221
 20
757.8269092331126
 30
0.0
 11
4775.4821877221
 21
889.2540039310999
 31
0.0
  0
LINE
  5
127
330
123
100
AcDbEntity
  8
标注
 62
     0
 48
2.0
370
    -2
100
AcDbLine
 10
5364.89439733429
 20
888.0040039310999
 30
0.0
 11
4785.4821877221
 21
888.0040039310999
 31
0.0
  0
SOLID
  5
128
330
123
100
AcDbEntity
  8
标注
 62
     0
100
AcDbTrace
 10
5364.89439733429
 20
886.3373372644334
 30
0.0
 11
5364.89439733429
 21
889.6706705977665
 31
0.0
 12
5374.894397334291
 22
888.0040039310999
 32
0.0
 13
5374.894397334291
 23
888.0040039310999
 33
0.0
  0
SOLID
  5
129
330
123
100
AcDbEntity
  8
标注
 62
     0
100
AcDbTrace
 10
4785.4821877221
 20
889.6706705977665
 30
0.0
 11
4785.4821877221
 21
886.3373372644334
 31
0.0
 12
4775.4821877221
 22
888.0040039310999
 32
0.0
 13
4775.4821877221
 23
888.0040039310999
 33
0.0
  0
MTEXT
  5
12A
330
123
100
AcDbEntity
  8
标注
 62
     0
 48
2.0
100
AcDbMText
 10
5075.188292528196
 20
903.0040039311
 30
0.0
 40
20.0
 41
0.0
 46
0.0
 71
     5
 72
     1
  1
600
 73
     1
 44
1.0
  0
POINT
  5
12B
330
123
100
AcDbEntity
  8
Defpoints
 62
     0
100
AcDbPoint
 10
5374.894397334291
 20
775.4324511816445
 30
0.0
  0
POINT
  5
12C
330
123
100
AcDbEntity
  8
Defpoints
 62
     0
100
AcDbPoint
 10
4775.4821877221
 20
757.2019092331125
 30
0.0
  0
POINT
  5
12D
330
123
100
AcDbEntity
  8
Defpoints
 62
     0
100
AcDbPoint
 10
4775.4821877221
 20
888.0040039310999
 30
0.0
  0
ENDBLK
  5
12E
330
123
100
AcDbEntity
  8
标注
100
AcDbBlockEnd
  0
BLOCK
  5
130
330
12F
100
AcDbEntity
  8
标注
100
AcDbBlockBegin
  2
*D2
 70
     1
 10
0.0
 20
0.0
 30
0.0
  3
*D2
  1
Acad:XRef
  0
LINE
  5
131
330
12F
100
AcDbEntity
  8
标注
 62
     0
 48
2.0
370
    -2
100
AcDbLine
 10
4816.510624270819
 20
784.9419110213123
 30
0.0
 11
4668.492591881338
 21
784.9419110213123
 31
0.0
  0
LINE
  5
132
330
12F
100
AcDbEntity
  8
标注
 62
     0
 48
2.0
370
    -2
100
AcDbLine
 10
4816.510624270819
 20
244.9419110213123
 30
0.0
 11
4668.492591881338
 21
244.9419110213123
 31
0.0
  0
LINE
  5
133
330
12F
100
AcDbEntity
  8
标注
 62
     0
 48
2.0
370
    -2
100
AcDbLine
 10
4669.742591881338
 20
774.9419110213123
 30
0.0
 11
4669.742591881338
 21
254.9419110213123
 31
0.0
  0
SOLID
  5
134
330
12F
100
AcDbEntity
  8
标注
 62
     0
100
AcDbTrace
 10
4671.409258548004
 20
774.9419110213123
 30
0.0
 11
4668.075925214671
 21
774.9419110213123
 31
0.0
 12
4669.742591881338
 22
784.9419110213123
 32
0.0
 13
4669.742591881338
 23
784.9419110213123
 33
0.0
  0
SOLID
  5
135
330
12F
100
AcDbEntity
  8
标注
 62
     0
100
AcDbTrace
 10
4668.075925214671
 20
254.9419110213123
 30
0.0
 11
4671.409258548004
 21
254.9419110213123
 31
0.0
 12
4669.742591881338
 22
244.9419110213123
 32
0.0
 13
4669.742591881338
 23
244.9419110213123
 33
0.0
  0
MTEXT
  5
136
330
12F
100
AcDbEntity
  8
标注
 62
     0
 48
2.0
100
AcDbMText
 10
4654.742591881338
 20
514.9419110213123
 30
0.0
 40
20.0
 41
0.0
 46
0.0
 71
     5
 72
     1
  1
540
 11
0.0
 21
1.0
 31
0.0
 73
     1
 44
1.0
  0
POINT
  5
137
330
12F
100
AcDbEntity
  8
Defpoints
 62
     0
100
AcDbPoint
 10
4817.135624270819
 20
784.9419110213123
 30
0.0
  0
POINT
  5
138
330
12F
100
AcDbEntity
  8
Defpoints
 62
     0
100
AcDbPoint
 10
4817.135624270819
 20
244.9419110213123
 30
0.0
  0
POINT
  5
139
330
12F
100
AcDbEntity
  8
Defpoints
 62
     0
100
AcDbPoint
 10
4669.742591881338
 20
244.9419110213123
 30
0.0
  0
ENDBLK
  5
13A
330
12F
100
AcDbEntity
  8
标注
100
AcDbBlockEnd
  0
BLOCK
  5
13C
330
13B
100
AcDbEntity
  8
标注
100
AcDbBlockBegin
  2
*D3
 70
     1
 10
0.0
 20
0.0
 30
0.0
  3
*D3
  1
Acad:XRef
  0
MTEXT
  5
13D
330
13B
100
AcDbEntity
  8
标注
 62
     0
 48
2.0
100
AcDbMText
 10
4731.073526805814
 20
838.9167553910947
 30
0.0
 40
20.0
 41
0.0
 46
0.0
 71
     5
 72
     1
  1
R20
 11
0.7642710596088356
 21
-0.644895144534666
 31
0.0
 73
     1
 44
1.0
  0
LINE
  5
13E
330
13B
100
AcDbEntity
  8
标注
 62
     0
 48
2.0
370
    -2
100
AcDbLine
 10
4795.482187722099
 20
764.9419110213123
 30
0.0
 11
4780.196766529924
 21
777.8398139120056
 31
0.0
  0
LINE
  5
13F
330
13B
100
AcDbEntity
  8
标注
 62
     0
 48
2.0
370
    -2
100
AcDbLine
 10
4772.554055933834
 20
784.2887653573523
 30
0.0
 11
4698.471967849529
 21
846.7995438330021
 31
0.0
  0
SOLID
  5
140
330
13B
100
AcDbEntity
  8
标注
 62
     0
 48
2.0
100
AcDbTrace
 10
4771.479230692944
 20
783.0149802580042
 30
0.0
 11
4773.628881174726
 21
785.5625504567004
 31
0.0
 12
4780.196766529924
 22
777.8398139120056
 32
0.0
 13
4780.196766529924
 23
777.8398139120056
 33
0.0
  0
POINT
  5
141
330
13B
100
AcDbEntity
  8
Defpoints
 62
     0
 48
2.0
100
AcDbPoint
 10
4780.196766529924
 20
777.8398139120056
 30
0.0
  0
POINT
  5
142
330
13B
100
AcDbEntity
  8
Defpoints
 62
     0
 48
2.0
100
AcDbPoint
 10
4795.482187722099
 20
764.9419110213123
 30
0.0
  0
ENDBLK
  5
143
330
13B
100
AcDbEntity
  8
标注
100
AcDbBlockEnd
  0
BLOCK
  5
145
330
144
100
AcDbEntity
  8
标注
100
AcDbBlockBegin
  2
*D4
 70
     1
 10
0.0
 20
0.0
 30
0.0
  3
*D4
  1
Acad:XRef
  0
LINE
  5
146
330
144
100
AcDbEntity
  8
标注
 62
     0
 48
2.0
370
    -2
100
AcDbLine
 10
5200.188292528259
 20
329.3169110212522
 30
0.0
 11
5200.188292528259
 21
278.195291282853
 31
0.0
  0
LINE
  5
147
330
144
100
AcDbEntity
  8
标注
 62
     0
 48
2.0
370
    -2
100
AcDbLine
 10
4950.188292528132
 20
329.3169110212522
 30
0.0
 11
4950.188292528132
 21
278.195291282853
 31
0.0
  0
LINE
  5
148
330
144
100
AcDbEntity
  8
标注
 62
     0
 48
2.0
370
    -2
100
AcDbLine
 10
5190.188292528259
 20
279.445291282853
 30
0.0
 11
4960.188292528131
 21
279.445291282853
 31
0.0
  0
SOLID
  5
149
330
144
100
AcDbEntity
  8
标注
 62
     0
100
AcDbTrace
 10
5190.188292528259
 20
277.7786246161863
 30
0.0
 11
5190.188292528259
 21
281.1119579495196
 31
0.0
 12
5200.188292528259
 22
279.445291282853
 32
0.0
 13
5200.188292528259
 23
279.445291282853
 33
0.0
  0
SOLID
  5
14A
330
144
100
AcDbEntity
  8
标注
 62
     0
100
AcDbTrace
 10
4960.188292528131
 20
281.1119579495196
 30
0.0
 11
4960.188292528131
 21
277.7786246161863
 31
0.0
 12
4950.188292528132
 22
279.445291282853
 32
0.0
 13
4950.188292528132
 23
279.445291282853
 33
0.0
  0
MTEXT
  5
14B
330
144
100
AcDbEntity
  8
标注
 62
     0
 48
2.0
100
AcDbMText
 10
5075.188292528196
 20
294.445291282853
 30
0.0
 40
20.0
 41
0.0
 46
0.0
 71
     5
 72
     1
  1
250
 73
     1
 44
1.0
  0
POINT
  5
14C
330
144
100
AcDbEntity
  8
Defpoints
 62
     0
100
AcDbPoint
 10
5200.188292528259
 20
329.9419110212522
 30
0.0
  0
POINT
  5
14D
330
144
100
AcDbEntity
  8
Defpoints
 62
     0
100
AcDbPoint
 10
4950.188292528132
 20
329.9419110212522
 30
0.0
  0
POINT
  5
14E
330
144
100
AcDbEntity
  8
Defpoints
 62
     0
100
AcDbPoint
 10
4950.188292528132
 20
279.445291282853
 30
0.0
  0
ENDBLK
  5
14F
330
144
100
AcDbEntity
  8
标注
100
AcDbBlockEnd
  0
BLOCK
  5
151
330
150
100
AcDbEntity
  8
标注
100
AcDbBlockBegin
  2
*D5
 70
     1
 10
0.0
 20
0.0
 30
0.0
  3
*D5
  1
Acad:XRef
  0
LINE
  5
152
330
150
100
AcDbEntity
  8
标注
 62
     0
 48
2.0
370
    -2
100
AcDbLine
 10
5271.813292528139
 20
690.9419110212536
 30
0.0
 11
5317.485998717509
 21
690.9419110212536
 31
0.0
  0
LINE
  5
153
330
150
100
AcDbEntity
  8
标注
 62
     0
 48
2.0
370
    -2
100
AcDbLine
 10
5271.813292528139
 20
338.9419110212537
 30
0.0
 11
5317.485998717509
 21
338.9419110212537
 31
0.0
  0
LINE
  5
154
330
150
100
AcDbEntity
  8
标注
 62
     0
 48
2.0
370
    -2
100
AcDbLine
 10
5316.235998717509
 20
680.9419110212536
 30
0.0
 11
5316.235998717509
 21
348.9419110212538
 31
0.0
  0
SOLID
  5
155
330
150
100
AcDbEntity
  8
标注
 62
     0
100
AcDbTrace
 10
5317.902665384176
 20
680.9419110212536
 30
0.0
 11
5314.569332050842
 21
680.9419110212536
 31
0.0
 12
5316.235998717509
 22
690.9419110212536
 32
0.0
 13
5316.235998717509
 23
690.9419110212536
 33
0.0
  0
SOLID
  5
156
330
150
100
AcDbEntity
  8
标注
 62
     0
100
AcDbTrace
 10
5314.569332050842
 20
348.9419110212538
 30
0.0
 11
5317.902665384176
 21
348.9419110212538
 31
0.0
 12
5316.235998717509
 22
338.9419110212537
 32
0.0
 13
5316.235998717509
 23
338.9419110212537
 33
0.0
  0
MTEXT
  5
157
330
150
100
AcDbEntity
  8
标注
 62
     0
 48
2.0
100
AcDbMText
 10
5301.235998717508
 20
514.9419110212536
 30
0.0
 40
20.0
 41
0.0
 46
0.0
 71
     5
 72
     1
  1
352
 11
0.0
 21
1.0
 31
0.0
 73
     1
 44
1.0
  0
POINT
  5
158
330
150
100
AcDbEntity
  8
Defpoints
 62
     0
100
AcDbPoint
 10
5271.188292528139
 20
690.9419110212536
 30
0.0
  0
POINT
  5
159
330
150
100
AcDbEntity
  8
Defpoints
 62
     0
100
AcDbPoint
 10
5271.188292528139
 20
338.9419110212537
 30
0.0
  0
POINT
  5
15A
330
150
100
AcDbEntity
  8
Defpoints
 62
     0
100
AcDbPoint
 10
5316.235998717509
 20
338.9419110212537
 30
0.0
  0
ENDBLK
  5
15B
330
150
100
AcDbEntity
  8
标注
100
AcDbBlockEnd
  0
BLOCK
  5
15D
330
15C
100
AcDbEntity
  8
标注
100
AcDbBlockBegin
  2
*D6
 70
     1
 10
0.0
 20
0.0
 30
0.0
  3
*D6
  1
Acad:XRef
  0
LINE
  5
15E
330
15C
100
AcDbEntity
  8
标注
 62
     0
 48
2.0
370
    -2
100
AcDbLine
 10
5271.188292528139
 20
646.2980717608553
 30
0.0
 11
5271.188292528139
 21
529.9401749916849
 31
0.0
  0
LINE
  5
15F
330
15C
100
AcDbEntity
  8
标注
 62
     0
 48
2.0
370
    -2
100
AcDbLine
 10
4879.188292528139
 20
612.1982003913676
 30
0.0
 11
4879.188292528139
 21
529.9401749916849
 31
0.0
  0
LINE
  5
160
330
15C
100
AcDbEntity
  8
标注
 62
     0
 48
2.0
370
    -2
100
AcDbLine
 10
5261.188292528139
 20
531.1901749916849
 30
0.0
 11
4889.188292528139
 21
531.1901749916849
 31
0.0
  0
SOLID
  5
161
330
15C
100
AcDbEntity
  8
标注
 62
     0
100
AcDbTrace
 10
5261.188292528139
 20
529.5235083250182
 30
0.0
 11
5261.188292528139
 21
532.8568416583514
 31
0.0
 12
5271.188292528139
 22
531.1901749916849
 32
0.0
 13
5271.188292528139
 23
531.1901749916849
 33
0.0
  0
SOLID
  5
162
330
15C
100
AcDbEntity
  8
标注
 62
     0
100
AcDbTrace
 10
4889.188292528139
 20
532.8568416583514
 30
0.0
 11
4889.188292528139
 21
529.5235083250182
 31
0.0
 12
4879.188292528139
 22
531.1901749916849
 32
0.0
 13
4879.188292528139
 23
531.1901749916849
 33
0.0
  0
MTEXT
  5
163
330
15C
100
AcDbEntity
  8
标注
 62
     0
 48
2.0
100
AcDbMText
 10
5075.188292528139
 20
546.1901749916848
 30
0.0
 40
20.0
 41
0.0
 46
0.0
 71
     5
 72
     1
  1
392
 73
     1
 44
1.0
  0
POINT
  5
164
330
15C
100
AcDbEntity
  8
Defpoints
 62
     0
100
AcDbPoint
 10
5271.188292528139
 20
646.9230717608553
 30
0.0
  0
POINT
  5
165
330
15C
100
AcDbEntity
  8
Defpoints
 62
     0
100
AcDbPoint
 10
4879.188292528139
 20
612.8232003913677
 30
0.0
  0
POINT
  5
166
330
15C
100
AcDbEntity
  8
Defpoints
 62
     0
100
AcDbPoint
 10
4879.188292528139
 20
531.1901749916849
 30
0.0
  0
ENDBLK
  5
167
330
15C
100
AcDbEntity
  8
标注
100
AcDbBlockEnd
  0
BLOCK
  5
169
330
168
100
AcDbEntity
  8
标注
100
AcDbBlockBegin
  2
*D7
 70
     1
 10
0.0
 20
0.0
 30
0.0
  3
*D7
  1
Acad:XRef
  0
LINE
  5
16A
330
168
100
AcDbEntity
  8
标注
 62
     0
 48
2.0
370
    -2
100
AcDbLine
 10
5075.813292528195
 20
711.9419110212536
 30
0.0
 11
5131.954725916765
 21
711.9419110212536
 31
0.0
  0
LINE
  5
16B
330
168
100
AcDbEntity
  8
标注
 62
     0
 48
2.0
370
    -2
100
AcDbLine
 10
5075.813292528138
 20
690.9419110212545
 30
0.0
 11
5131.954725916765
 21
690.9419110212545
 31
0.0
  0
LINE
  5
16C
330
168
100
AcDbEntity
  8
标注
 62
     0
 48
2.0
370
    -2
100
AcDbLine
 10
5130.704725916764
 20
680.9419110212545
 30
0.0
 11
5130.704725916764
 21
634.2752443545885
 31
0.0
  0
LINE
  5
16D
330
168
100
AcDbEntity
  8
标注
 62
     0
 48
2.0
370
    -2
100
AcDbLine
 10
5130.704725916764
 20
711.9419110212536
 30
0.0
 11
5130.704725916764
 21
690.9419110212545
 31
0.0
  0
LINE
  5
16E
330
168
100
AcDbEntity
  8
标注
 62
     0
 48
2.0
370
    -2
100
AcDbLine
 10
5130.704725916764
 20
721.9419110212536
 30
0.0
 11
5130.704725916764
 21
731.9419110212536
 31
0.0
  0
SOLID
  5
16F
330
168
100
AcDbEntity
  8
标注
 62
     0
100
AcDbTrace
 10
5129.038059250098
 20
721.9419110212536
 30
0.0
 11
5132.371392583432
 21
721.9419110212536
 31
0.0
 12
5130.704725916764
 22
711.9419110212536
 32
0.0
 13
5130.704725916764
 23
711.9419110212536
 33
0.0
  0
SOLID
  5
170
330
168
100
AcDbEntity
  8
标注
 62
     0
100
AcDbTrace
 10
5132.371392583432
 20
680.9419110212545
 30
0.0
 11
5129.038059250098
 21
680.9419110212545
 31
0.0
 12
5130.704725916764
 22
690.9419110212545
 32
0.0
 13
5130.704725916764
 23
690.9419110212545
 33
0.0
  0
MTEXT
  5
171
330
168
100
AcDbEntity
  8
标注
 62
     0
 48
2.0
100
AcDbMText
 10
5115.704725916764
 20
652.6085776879215
 30
0.0
 40
20.0
 41
0.0
 46
0.0
 71
     5
 72
     1
  1
21
 11
0.0
 21
1.0
 31
0.0
 73
     1
 44
1.0
  0
POINT
  5
172
330
168
100
AcDbEntity
  8
Defpoints
 62
     0
100
AcDbPoint
 10
5075.188292528196
 20
711.9419110212536
 30
0.0
  0
POINT
  5
173
330
168
100
AcDbEntity
  8
Defpoints
 62
     0
100
AcDbPoint
 10
5075.188292528139
 20
690.9419110212545
 30
0.0
  0
POINT
  5
174
330
168
100
AcDbEntity
  8
Defpoints
 62
     0
100
AcDbPoint
 10
5130.704725916764
 20
690.9419110212545
 30
0.0
  0
ENDBLK
  5
175
330
168
100
AcDbEntity
  8
标注
100
AcDbBlockEnd
  0
BLOCK
  5
1CB
330
1C1
100
AcDbEntity
  8
0
100
AcDbBlockBegin
  2
*D9
 70
     1
 10
0.0
 20
0.0
 30
0.0
  3
*D9
  1

  0
LINE
  5
212
330
1C1
100
AcDbEntity
  8
标注
 62
     0
 48
2.0
370
    -2
100
AcDbLine
 10
1590.033250198543
 20
854.938024963919
 30
0.0
 11
1590.033250198543
 21
968.1345777133744
 31
0.0
  0
LINE
  5
213
330
1C1
100
AcDbEntity
  8
标注
 62
     0
 48
2.0
370
    -2
100
AcDbLine
 10
990.621040586353
 20
836.7074830153871
 30
0.0
 11
990.621040586353
 21
968.1345777133744
 31
0.0
  0
LINE
  5
214
330
1C1
100
AcDbEntity
  8
标注
 62
     0
 48
2.0
370
    -2
100
AcDbLine
 10
1587.533250198543
 20
966.8845777133745
 30
0.0
 11
993.1210405863531
 21
966.8845777133745
 31
0.0
  0
SOLID
  5
215
330
1C1
100
AcDbEntity
  8
标注
 62
     0
 48
2.0
100
AcDbTrace
 10
1587.533250198543
 20
967.3012443800411
 30
0.0
 11
1587.533250198543
 21
966.4679110467078
 31
0.0
 12
1590.033250198543
 22
966.8845777133745
 32
0.0
 13
1590.033250198543
 23
966.8845777133745
 33
0.0
  0
SOLID
  5
216
330
1C1
100
AcDbEntity
  8
标注
 62
     0
 48
2.0
100
AcDbTrace
 10
993.1210405863531
 20
967.3012443800411
 30
0.0
 11
993.1210405863531
 21
966.4679110467078
 31
0.0
 12
990.621040586353
 22
966.8845777133745
 32
0.0
 13
990.621040586353
 23
966.8845777133745
 33
0.0
  0
MTEXT
  5
217
330
1C1
100
AcDbEntity
  8
标注
 62
     0
 48
2.0
100
AcDbMText
 10
1290.327145392448
 20
968.7595777133745
 30
0.0
 40
2.5
 41
0.0
 46
0.0
 71
     5
 72
     1
  1
600
 73
     1
 44
1.0
  0
POINT
  5
218
330
1C1
100
AcDbEntity
  8
Defpoints
 62
     0
 48
2.0
100
AcDbPoint
 10
1590.033250198543
 20
854.313024963919
 30
0.0
  0
POINT
  5
219
330
1C1
100
AcDbEntity
  8
Defpoints
 62
     0
 48
2.0
100
AcDbPoint
 10
990.621040586353
 20
836.082483015387
 30
0.0
  0
POINT
  5
21A
330
1C1
100
AcDbEntity
  8
Defpoints
 62
     0
 48
2.0
100
AcDbPoint
 10
990.621040586353
 20
966.8845777133745
 30
0.0
  0
ENDBLK
  5
1CC
330
1C1
100
AcDbEntity
  8
0
100
AcDbBlockEnd
  0
BLOCK
  5
1D7
330
1CD
100
AcDbEntity
  8
0
100
AcDbBlockBegin
  2
*D10
 70
     1
 10
0.0
 20
0.0
 30
0.0
  3
*D10
  1

  0
LINE
  5
21B
330
1CD
100
AcDbEntity
  8
标注
 62
     0
 48
2.0
370
    -2
100
AcDbLine
 10
1031.649477135071
 20
863.8224848035868
 30
0.0
 11
883.6314447455908
 21
863.8224848035868
 31
0.0
  0
LINE
  5
21C
330
1CD
100
AcDbEntity
  8
标注
 62
     0
 48
2.0
370
    -2
100
AcDbLine
 10
1031.649477135071
 20
323.8224848035868
 30
0.0
 11
883.6314447455906
 21
323.8224848035869
 31
0.0
  0
LINE
  5
21D
330
1CD
100
AcDbEntity
  8
标注
 62
     0
 48
2.0
370
    -2
100
AcDbLine
 10
884.8814447455907
 20
861.3224848035867
 30
0.0
 11
884.8814447455906
 21
326.3224848035869
 31
0.0
  0
SOLID
  5
21E
330
1CD
100
AcDbEntity
  8
标注
 62
     0
 48
2.0
100
AcDbTrace
 10
884.4647780789241
 20
861.3224848035867
 30
0.0
 11
885.2981114122574
 21
861.3224848035867
 31
0.0
 12
884.8814447455907
 22
863.8224848035868
 32
0.0
 13
884.8814447455907
 23
863.8224848035868
 33
0.0
  0
SOLID
  5
21F
330
1CD
100
AcDbEntity
  8
标注
 62
     0
 48
2.0
100
AcDbTrace
 10
884.4647780789241
 20
326.3224848035869
 30
0.0
 11
885.2981114122572
 21
326.3224848035869
 31
0.0
 12
884.8814447455906
 22
323.8224848035869
 32
0.0
 13
884.8814447455906
 23
323.8224848035869
 33
0.0
  0
MTEXT
  5
220
330
1CD
100
AcDbEntity
  8
标注
 62
     0
 48
2.0
100
AcDbMText
 10
883.0064447455905
 20
593.822484803587
 30
0.0
 40
2.5
 41
0.0
 46
0.0
 71
     5
 72
     1
  1
540
 11
0.0000000000000001
 21
1.0
 31
0.0
 73
     1
 44
1.0
  0
POINT
  5
221
330
1CD
100
AcDbEntity
  8
Defpoints
 62
     0
 48
2.0
100
AcDbPoint
 10
1032.274477135072
 20
863.8224848035868
 30
0.0
  0
POINT
  5
222
330
1CD
100
AcDbEntity
  8
Defpoints
 62
     0
 48
2.0
100
AcDbPoint
 10
1032.274477135072
 20
323.8224848035868
 30
0.0
  0
POINT
  5
223
330
1CD
100
AcDbEntity
  8
Defpoints
 62
     0
 48
2.0
100
AcDbPoint
 10
884.8814447455906
 20
323.8224848035869
 30
0.0
  0
ENDBLK
  5
1D8
330
1CD
100
AcDbEntity
  8
0
100
AcDbBlockEnd
  0
BLOCK
  5
1E0
330
1D9
100
AcDbEntity
  8
0
100
AcDbBlockBegin
  2
*D11
 70
     1
 10
0.0
 20
0.0
 30
0.0
  3
*D11
  1

  0
LINE
  5
224
330
1D9
100
AcDbEntity
  8
标注
 62
     0
 48
2.0
370
    -2
100
AcDbLine
 10
933.672936028514
 20
908.7516200712418
 30
0.0
 11
993.4249417451542
 21
858.3326255556167
 31
0.0
  0
MTEXT
  5
225
330
1D9
100
AcDbEntity
  8
标注
 62
     0
 48
2.0
100
AcDbMText
 10
937.7481308980497
 20
907.7662715160034
 30
0.0
 40
2.5
 41
0.0
 46
0.0
 71
     5
 72
     1
  1
R20
 11
0.7642710596088359
 21
-0.6448951445346659
 31
0.0
 73
     1
 44
1.0
  0
LINE
  5
226
330
1D9
100
AcDbEntity
  8
标注
 62
     0
 48
2.0
370
    -2
100
AcDbLine
 10
1010.621040586353
 20
843.8224848035869
 30
0.0
 11
995.3356193941763
 21
856.7203876942802
 31
0.0
  0
SOLID
  5
227
330
1D9
100
AcDbEntity
  8
标注
 62
     0
 48
2.0
100
AcDbTrace
 10
993.693648055377
 20
858.6510718304538
 30
0.0
 11
993.1562354349313
 21
858.0141792807797
 31
0.0
 12
995.3356193941763
 22
856.7203876942802
 32
0.0
 13
995.3356193941763
 23
856.7203876942802
 33
0.0
  0
POINT
  5
228
330
1D9
100
AcDbEntity
  8
Defpoints
 62
     0
 48
2.0
100
AcDbPoint
 10
995.3356193941763
 20
856.7203876942802
 30
0.0
  0
POINT
  5
229
330
1D9
100
AcDbEntity
  8
Defpoints
 62
     0
 48
2.0
100
AcDbPoint
 10
1010.621040586353
 20
843.8224848035869
 30
0.0
  0
ENDBLK
  5
1E1
330
1D9
100
AcDbEntity
  8
0
100
AcDbBlockEnd
  0
BLOCK
  5
1EC
330
1E2
100
AcDbEntity
  8
0
100
AcDbBlockBegin
  2
*D12
 70
     1
 10
0.0
 20
0.0
 30
0.0
  3
*D12
  1

  0
LINE
  5
22A
330
1E2
100
AcDbEntity
  8
标注
 62
     0
 48
2.0
370
    -2
100
AcDbLine
 10
1415.327145392511
 20
408.1974848035266
 30
0.0
 11
1415.327145392511
 21
357.0758650651275
 31
0.0
  0
LINE
  5
22B
330
1E2
100
AcDbEntity
  8
标注
 62
     0
 48
2.0
370
    -2
100
AcDbLine
 10
1165.327145392384
 20
408.1974848035266
 30
0.0
 11
1165.327145392384
 21
357.0758650651275
 31
0.0
  0
LINE
  5
22C
330
1E2
100
AcDbEntity
  8
标注
 62
     0
 48
2.0
370
    -2
100
AcDbLine
 10
1412.827145392512
 20
358.3258650651274
 30
0.0
 11
1167.827145392384
 21
358.3258650651274
 31
0.0
  0
SOLID
  5
22D
330
1E2
100
AcDbEntity
  8
标注
 62
     0
 48
2.0
100
AcDbTrace
 10
1412.827145392512
 20
358.7425317317941
 30
0.0
 11
1412.827145392512
 21
357.9091983984608
 31
0.0
 12
1415.327145392511
 22
358.3258650651274
 32
0.0
 13
1415.327145392511
 23
358.3258650651274
 33
0.0
  0
SOLID
  5
22E
330
1E2
100
AcDbEntity
  8
标注
 62
     0
 48
2.0
100
AcDbTrace
 10
1167.827145392384
 20
358.7425317317941
 30
0.0
 11
1167.827145392384
 21
357.9091983984608
 31
0.0
 12
1165.327145392384
 22
358.3258650651274
 32
0.0
 13
1165.327145392384
 23
358.3258650651274
 33
0.0
  0
MTEXT
  5
22F
330
1E2
100
AcDbEntity
  8
标注
 62
     0
 48
2.0
100
AcDbMText
 10
1290.327145392448
 20
360.2008650651275
 30
0.0
 40
2.5
 41
0.0
 46
0.0
 71
     5
 72
     1
  1
250
 73
     1
 44
1.0
  0
POINT
  5
230
330
1E2
100
AcDbEntity
  8
Defpoints
 62
     0
 48
2.0
100
AcDbPoint
 10
1415.327145392511
 20
408.8224848035266
 30
0.0
  0
POINT
  5
231
330
1E2
100
AcDbEntity
  8
Defpoints
 62
     0
 48
2.0
100
AcDbPoint
 10
1165.327145392384
 20
408.8224848035266
 30
0.0
  0
POINT
  5
232
330
1E2
100
AcDbEntity
  8
Defpoints
 62
     0
 48
2.0
100
AcDbPoint
 10
1165.327145392384
 20
358.3258650651274
 30
0.0
  0
ENDBLK
  5
1ED
330
1E2
100
AcDbEntity
  8
0
100
AcDbBlockEnd
  0
BLOCK
  5
1F8
330
1EE
100
AcDbEntity
  8
0
100
AcDbBlockBegin
  2
*D13
 70
     1
 10
0.0
 20
0.0
 30
0.0
  3
*D13
  1

  0
LINE
  5
233
330
1EE
100
AcDbEntity
  8
标注
 62
     0
 48
2.0
370
    -2
100
AcDbLine
 10
1486.952145392392
 20
769.8224848035281
 30
0.0
 11
1532.624851581761
 21
769.8224848035281
 31
0.0
  0
LINE
  5
234
330
1EE
100
AcDbEntity
  8
标注
 62
     0
 48
2.0
370
    -2
100
AcDbLine
 10
1486.952145392392
 20
417.8224848035283
 30
0.0
 11
1532.624851581761
 21
417.8224848035283
 31
0.0
  0
LINE
  5
235
330
1EE
100
AcDbEntity
  8
标注
 62
     0
 48
2.0
370
    -2
100
AcDbLine
 10
1531.374851581762
 20
767.3224848035281
 30
0.0
 11
1531.374851581761
 21
420.3224848035282
 31
0.0
  0
SOLID
  5
236
330
1EE
100
AcDbEntity
  8
标注
 62
     0
 48
2.0
100
AcDbTrace
 10
1530.958184915095
 20
767.3224848035281
 30
0.0
 11
1531.791518248428
 21
767.3224848035281
 31
0.0
 12
1531.374851581762
 22
769.8224848035281
 32
0.0
 13
1531.374851581762
 23
769.8224848035281
 33
0.0
  0
SOLID
  5
237
330
1EE
100
AcDbEntity
  8
标注
 62
     0
 48
2.0
100
AcDbTrace
 10
1530.958184915095
 20
420.3224848035282
 30
0.0
 11
1531.791518248428
 21
420.3224848035282
 31
0.0
 12
1531.374851581761
 22
417.8224848035283
 32
0.0
 13
1531.374851581761
 23
417.8224848035283
 33
0.0
  0
MTEXT
  5
238
330
1EE
100
AcDbEntity
  8
标注
 62
     0
 48
2.0
100
AcDbMText
 10
1529.499851581761
 20
593.8224848035284
 30
0.0
 40
2.5
 41
0.0
 46
0.0
 71
     5
 72
     1
  1
352
 11
0.0000000000000001
 21
1.0
 31
0.0
 73
     1
 44
1.0
  0
POINT
  5
239
330
1EE
100
AcDbEntity
  8
Defpoints
 62
     0
 48
2.0
100
AcDbPoint
 10
1486.327145392391
 20
769.8224848035281
 30
0.0
  0
POINT
  5
23A
330
1EE
100
AcDbEntity
  8
Defpoints
 62
     0
 48
2.0
100
AcDbPoint
 10
1486.327145392391
 20
417.8224848035283
 30
0.0
  0
POINT
  5
23B
330
1EE
100
AcDbEntity
  8
Defpoints
 62
     0
 48
2.0
100
AcDbPoint
 10
1531.374851581761
 20
417.8224848035283
 30
0.0
  0
ENDBLK
  5
1F9
330
1EE
100
AcDbEntity
  8
0
100
AcDbBlockEnd
  0
BLOCK
  5
204
330
1FA
100
AcDbEntity
  8
0
100
AcDbBlockBegin
  2
*D14
 70
     1
 10
0.0
 20
0.0
 30
0.0
  3
*D14
  1

  0
LINE
  5
23C
330
1FA
100
AcDbEntity
  8
标注
 62
     0
 48
2.0
370
    -2
100
AcDbLine
 10
1486.327145392391
 20
725.1786455431298
 30
0.0
 11
1486.327145392391
 21
608.8207487739594
 31
0.0
  0
LINE
  5
23D
330
1FA
100
AcDbEntity
  8
标注
 62
     0
 48
2.0
370
    -2
100
AcDbLine
 10
1094.327145392391
 20
691.0787741736421
 30
0.0
 11
1094.327145392391
 21
608.8207487739594
 31
0.0
  0
LINE
  5
23E
330
1FA
100
AcDbEntity
  8
标注
 62
     0
 48
2.0
370
    -2
100
AcDbLine
 10
1483.827145392392
 20
610.0707487739594
 30
0.0
 11
1096.827145392391
 21
610.0707487739594
 31
0.0
  0
SOLID
  5
23F
330
1FA
100
AcDbEntity
  8
标注
 62
     0
 48
2.0
100
AcDbTrace
 10
1483.827145392392
 20
610.487415440626
 30
0.0
 11
1483.827145392392
 21
609.6540821072927
 31
0.0
 12
1486.327145392391
 22
610.0707487739594
 32
0.0
 13
1486.327145392391
 23
610.0707487739594
 33
0.0
  0
SOLID
  5
240
330
1FA
100
AcDbEntity
  8
标注
 62
     0
 48
2.0
100
AcDbTrace
 10
1096.827145392391
 20
610.487415440626
 30
0.0
 11
1096.827145392391
 21
609.6540821072927
 31
0.0
 12
1094.327145392391
 22
610.0707487739594
 32
0.0
 13
1094.327145392391
 23
610.0707487739594
 33
0.0
  0
MTEXT
  5
241
330
1FA
100
AcDbEntity
  8
标注
 62
     0
 48
2.0
100
AcDbMText
 10
1290.327145392392
 20
611.9457487739594
 30
0.0
 40
2.5
 41
0.0
 46
0.0
 71
     5
 72
     1
  1
392
 73
     1
 44
1.0
  0
POINT
  5
242
330
1FA
100
AcDbEntity
  8
Defpoints
 62
     0
 48
2.0
100
AcDbPoint
 10
1486.327145392391
 20
725.8036455431298
 30
0.0
  0
POINT
  5
243
330
1FA
100
AcDbEntity
  8
Defpoints
 62
     0
 48
2.0
100
AcDbPoint
 10
1094.327145392391
 20
691.7037741736422
 30
0.0
  0
POINT
  5
244
330
1FA
100
AcDbEntity
  8
Defpoints
 62
     0
 48
2.0
100
AcDbPoint
 10
1094.327145392391
 20
610.0707487739594
 30
0.0
  0
ENDBLK
  5
205
330
1FA
100
AcDbEntity
  8
0
100
AcDbBlockEnd
  0
BLOCK
  5
210
330
206
100
AcDbEntity
  8
0
100
AcDbBlockBegin
  2
*D15
 70
     1
 10
0.0
 20
0.0
 30
0.0
  3
*D15
  1

  0
LINE
  5
245
330
206
100
AcDbEntity
  8
标注
 62
     0
 48
2.0
370
    -2
100
AcDbLine
 10
1290.952145392448
 20
790.8224848035281
 30
0.0
 11
1347.093578781018
 21
790.8224848035281
 31
0.0
  0
LINE
  5
246
330
206
100
AcDbEntity
  8
标注
 62
     0
 48
2.0
370
    -2
100
AcDbLine
 10
1290.952145392392
 20
769.822484803529
 30
0.0
 11
1347.093578781018
 21
769.822484803529
 31
0.0
  0
LINE
  5
247
330
206
100
AcDbEntity
  8
标注
 62
     0
 48
2.0
370
    -2
100
AcDbLine
 10
1345.843578781017
 20
788.3224848035281
 30
0.0
 11
1345.843578781017
 21
772.322484803529
 31
0.0
  0
SOLID
  5
248
330
206
100
AcDbEntity
  8
标注
 62
     0
 48
2.0
100
AcDbTrace
 10
1345.426912114351
 20
788.3224848035281
 30
0.0
 11
1346.260245447684
 21
788.3224848035281
 31
0.0
 12
1345.843578781017
 22
790.8224848035281
 32
0.0
 13
1345.843578781017
 23
790.8224848035281
 33
0.0
  0
SOLID
  5
249
330
206
100
AcDbEntity
  8
标注
 62
     0
 48
2.0
100
AcDbTrace
 10
1345.426912114351
 20
772.322484803529
 30
0.0
 11
1346.260245447684
 21
772.322484803529
 31
0.0
 12
1345.843578781017
 22
769.822484803529
 32
0.0
 13
1345.843578781017
 23
769.822484803529
 33
0.0
  0
MTEXT
  5
24A
330
206
100
AcDbEntity
  8
标注
 62
     0
 48
2.0
100
AcDbMText
 10
1343.968578781017
 20
780.3224848035288
 30
0.0
 40
2.5
 41
0.0
 46
0.0
 71
     5
 72
     1
  1
21
 11
0.0000000000000001
 21
1.0
 31
0.0
 73
     1
 44
1.0
  0
POINT
  5
24B
330
206
100
AcDbEntity
  8
Defpoints
 62
     0
 48
2.0
100
AcDbPoint
 10
1290.327145392448
 20
790.8224848035281
 30
0.0
  0
POINT
  5
24C
330
206
100
AcDbEntity
  8
Defpoints
 62
     0
 48
2.0
100
AcDbPoint
 10
1290.327145392392
 20
769.822484803529
 30
0.0
  0
POINT
  5
24D
330
206
100
AcDbEntity
  8
Defpoints
 62
     0
 48
2.0
100
AcDbPoint
 10
1345.843578781017
 20
769.822484803529
 30
0.0
  0
ENDBLK
  5
211
330
206
100
AcDbEntity
  8
0
100
AcDbBlockEnd
  0
ENDSEC
  0
SECTION
  2
ENTITIES
  0
LINE
  5
1A5
330
1F
100
AcDbEntity
  8
0
  6
Continuous
 62
     7
370
    15
100
AcDbLine
 10
1590.033250198543
 20
843.8224848035869
 30
0.0
 11
1590.033250198543
 21
343.8224848035869
 31
0.0
  0
LINE
  5
1A6
330
1F
100
AcDbEntity
  8
0
  6
Continuous
 62
     7
370
    15
100
AcDbLine
 10
990.621040586353
 20
343.8224848035868
 30
0.0
 11
990.621040586353
 21
843.8224848035869
 31
0.0
  0
LINE
  5
1A7
330
1F
100
AcDbEntity
  8
0
  6
Continuous
 62
     7
370
    15
100
AcDbLine
 10
1010.621040586353
 20
323.8224848035868
 30
0.0
 11
1570.033250198543
 21
323.8224848035869
 31
0.0
  0
LINE
  5
1A8
330
1F
100
AcDbEntity
  8
0
  6
Continuous
 62
     7
370
    15
100
AcDbLine
 10
1570.033250198543
 20
863.822484803587
 30
0.0
 11
1010.621040586353
 21
863.8224848035868
 31
0.0
  0
LINE
  5
1A9
330
1F
100
AcDbEntity
  8
0
  6
Continuous
 62
     7
370
    15
100
AcDbLine
 10
1094.327145392391
 20
417.8224848035299
 30
0.0
 11
1486.327145392391
 21
417.8224848035283
 31
0.0
  0
CIRCLE
  5
1AA
330
1F
100
AcDbEntity
  8
0
  6
Continuous
 62
     7
370
    15
100
AcDbCircle
 10
1471.327145392493
 20
821.3224848035489
 30
0.0
 40
2.499999999999943
  0
CIRCLE
  5
1AB
330
1F
100
AcDbEntity
  8
0
  6
Continuous
 62
     7
370
    15
100
AcDbCircle
 10
1290.327145392448
 20
790.8224848035281
 30
0.0
 40
5.25
  0
LINE
  5
1AC
330
1F
100
AcDbEntity
  8
0
  6
Continuous
 62
     7
370
    15
100
AcDbLine
 10
1486.327145392391
 20
769.8224848035281
 30
0.0
 11
1094.327145392391
 21
769.8224848035299
 31
0.0
  0
LINE
  5
1AD
330
1F
100
AcDbEntity
  8
0
  6
Continuous
 62
     7
370
    15
100
AcDbLine
 10
1094.327145392391
 20
769.8224848035299
 30
0.0
 11
1094.327145392391
 21
417.8224848035299
 31
0.0
  0
CIRCLE
  5
1AE
330
1F
100
AcDbEntity
  8
0
  6
Continuous
 62
     7
370
    15
100
AcDbCircle
 10
1429.327145392493
 20
821.3224848035489
 30
0.0
 40
2.5
  0
CIRCLE
  5
1AF
330
1F
100
AcDbEntity
  8
0
  6
Continuous
 62
     7
370
    15
100
AcDbCircle
 10
1165.327145392384
 20
408.8224848035266
 30
0.0
 40
1.999999999999985
  0
LINE
  5
1B0
330
1F
100
AcDbEntity
  8
0
  6
Continuous
 62
     7
370
    15
100
AcDbLine
 10
1486.327145392391
 20
417.8224848035283
 30
0.0
 11
1486.327145392391
 21
769.8224848035281
 31
0.0
  0
CIRCLE
  5
1B1
330
1F
100
AcDbEntity
  8
0
  6
Continuous
 62
     7
370
    15
100
AcDbCircle
 10
1109.327145392404
 20
821.3224848035489
 30
0.0
 40
2.500000000000003
  0
CIRCLE
  5
1B2
330
1F
100
AcDbEntity
  8
0
  6
Continuous
 62
     7
370
    15
100
AcDbCircle
 10
1415.327145392511
 20
408.8224848035266
 30
0.0
 40
1.999999999999943
  0
CIRCLE
  5
1B3
330
1F
100
AcDbEntity
  8
0
  6
Continuous
 62
     7
370
    15
100
AcDbCircle
 10
1151.327145392404
 20
821.3224848035489
 30
0.0
 40
2.500000000000007
  0
LINE
  5
1B4
330
1F
100
AcDbEntity
  8
0
  6
Continuous
 62
     7
370
    15
100
AcDbLine
 10
1024.327145392448
 20
863.8224848035868
 30
0.0
 11
1017.094500972183
 21
863.8224848035868
 31
0.0
  0
ARC
  5
1B8
330
1F
100
AcDbEntity
  8
0
  6
Continuous
 62
     7
370
    15
100
AcDbCircle
 10
1010.621040586353
 20
843.8224848035869
 30
0.0
 40
20.0
100
AcDbArc
 50
90.0
 51
180.0
  0
ARC
  5
1B9
330
1F
100
AcDbEntity
  8
0
  6
Continuous
 62
     7
370
    15
100
AcDbCircle
 10
1010.621040586353
 20
343.8224848035868
 30
0.0
 40
20.0
100
AcDbArc
 50
180.0
 51
270.0
  0
ARC
  5
1BA
330
1F
100
AcDbEntity
  8
0
  6
Continuous
 62
     7
370
    15
100
AcDbCircle
 10
1570.033250198543
 20
343.8224848035869
 30
0.0
 40
20.0
100
AcDbArc
 50
270.0
 51
0.0
  0
ARC
  5
1BB
330
1F
100
AcDbEntity
  8
0
  6
Continuous
 62
     7
370
    15
100
AcDbCircle
 10
1570.033250198543
 20
843.8224848035869
 30
0.0
 40
20.0
100
AcDbArc
 50
0.0
 51
90.0
  0
ENDSEC
  0
SECTION
  2
OBJECTS
  0
DICTIONARY
  5
C
330
0
100
AcDbDictionary
281
     1
  3
ACAD_COLOR
350
6B
  3
ACAD_GROUP
350
D
  3
ACAD_LAYOUT
350
1A
  3
ACAD_MATERIAL
350
6A
  3
ACAD_MLINESTYLE
350
17
  3
ACAD_PLOTSETTINGS
350
19
  3
ACAD_PLOTSTYLENAME
350
E
  3
ACAD_TABLESTYLE
350
7E
  3
ACAD_VISUALSTYLE
350
F0
  3
AcDbVariableDictionary
350
5E
  3
AEC_CLASSIFICATION_SYSTEM_DEFS
350
1A2
  3
AEC_PROPERTY_SET_DEFS
350
1A3
  0
DICTIONARY
  5
17F
330
2
100
AcDbDictionary
280
     1
281
     1
  3
ACAD_LAYERSTATES
360
180
  0
DICTIONARY
  5
179
330
178
100
AcDbDictionary
280
     1
281
     1
  3
ADSK_XREC_LAYER_RECONCILED
360
17A
  0
DICTIONARY
  5
6B
102
{ACAD_REACTORS
330
C
102
}
330
C
100
AcDbDictionary
281
     1
  0
DICTIONARY
  5
D
102
{ACAD_REACTORS
330
C
102
}
330
C
100
AcDbDictionary
281
     1
  0
DICTIONARY
  5
1A
102
{ACAD_REACTORS
330
C
102
}
330
C
100
AcDbDictionary
281
     1
  3
Model
350
22
  3
布局1
350
D3
  3
布局2
350
D7
  0
DICTIONARY
  5
6A
102
{ACAD_REACTORS
330
C
102
}
330
C
100
AcDbDictionary
281
     1
  3
ByBlock
350
EE
  3
ByLayer
350
ED
  3
Global
350
EF
  0
DICTIONARY
  5
17
102
{ACAD_REACTORS
330
C
102
}
330
C
100
AcDbDictionary
281
     1
  3
Standard
350
18
  0
DICTIONARY
  5
19
102
{ACAD_REACTORS
330
C
102
}
330
C
100
AcDbDictionary
281
     1
  0
ACDBDICTIONARYWDFLT
  5
E
102
{ACAD_REACTORS
330
C
102
}
330
C
100
AcDbDictionary
281
     1
  3
Normal
350
F
100
AcDbDictionaryWithDefault
340
F
  0
DICTIONARY
  5
7E
102
{ACAD_REACTORS
330
C
102
}
330
C
100
AcDbDictionary
281
     1
  3
Standard
350
7F
  0
DICTIONARY
  5
F0
102
{ACAD_REACTORS
330
C
102
}
330
C
100
AcDbDictionary
281
     1
  3
2dWireframe
350
F6
  3
3D Hidden
350
F8
  3
3dWireframe
350
F7
  3
Basic
350
F5
  3
Brighten
350
FC
  3
ColorChange
350
100
  3
Conceptual
350
F9
  3
Dim
350
FB
  3
Facepattern
350
FF
  3
Flat
350
F1
  3
FlatWithEdges
350
F2
  3
Gouraud
350
F3
  3
GouraudWithEdges
350
F4
  3
Linepattern
350
FE
  3
Realistic
350
FA
  3
Thicken
350
FD
  0
DICTIONARY
  5
5E
102
{ACAD_REACTORS
330
C
102
}
330
C
100
AcDbDictionary
281
     1
  3
CTABLESTYLE
350
84
  3
DIMASSOC
350
5F
  3
HIDETEXT
350
63
  0
DICTIONARY
  5
1A2
102
{ACAD_REACTORS
330
C
102
}
330
C
100
AcDbDictionary
281
     1
  0
DICTIONARY
  5
1A3
102
{ACAD_REACTORS
330
C
102
}
330
C
100
AcDbDictionary
281
     1
  0
DICTIONARY
  5
180
102
{ACAD_REACTORS
330
17F
102
}
330
17F
100
AcDbDictionary
281
     1
  0
XRECORD
  5
17A
102
{ACAD_REACTORS
330
179
102
}
330
179
100
AcDbXrecord
280
     1
290
     1
  0
LAYOUT
  5
22
102
{ACAD_REACTORS
330
1A
102
}
330
1A
100
AcDbPlotSettings
  1

  2
none_device
  4
ISO_A4_(210.00_x_297.00_MM)
  6

 40
7.5
 41
20.0
 42
7.5
 43
20.0
 44
210.0
 45
297.0
 46
11.54999923706054
 47
-13.65000009536743
 48
0.0
 49
0.0
140
0.0
141
0.0
142
1.0
143
8.704084754739808
 70
 11952
 72
     1
 73
     0
 74
     0
  7

 75
     0
147
0.1148885871608098
 76
     0
 77
     2
 78
   300
148
0.0
149
0.0
100
AcDbLayout
  1
Model
 70
     1
 71
     0
 10
0.0
 20
0.0
 11
12.0
 21
9.0
 12
0.0
 22
0.0
 32
0.0
 14
0.0
 24
0.0
 34
0.0
 15
0.0
 25
0.0
 35
0.0
146
0.0
 13
0.0
 23
0.0
 33
0.0
 16
1.0
 26
0.0
 36
0.0
 17
0.0
 27
1.0
 37
0.0
 76
     0
330
1F
331
EB
1001
ACAD_PSEXT
1000
None
1000
None
1000
Not applicable
1000
The layout will not be plotted unless a new plotter configuration name is selected.
1070
     0
  0
LAYOUT
  5
D3
102
{ACAD_REACTORS
330
1A
102
}
330
1A
100
AcDbPlotSettings
  1

  2
C:\Documents and Settings\basas\Application Data\Autodesk\AutoCAD 2005\R16.1\enu\plotters\Default Windows System Printer.pc3
  4

  6

 40
0.0
 41
0.0
 42
0.0
 43
0.0
 44
0.0
 45
0.0
 46
0.0
 47
0.0
 48
0.0
 49
0.0
140
0.0
141
0.0
142
1.0
143
1.0
 70
   688
 72
     0
 73
     0
 74
     5
  7

 75
    16
147
1.0
 76
     0
 77
     2
 78
   300
148
0.0
149
0.0
100
AcDbLayout
  1
布局1
 70
     1
 71
     1
 10
0.0
 20
0.0
 11
12.0
 21
9.0
 12
0.0
 22
0.0
 32
0.0
 14
0.0
 24
0.0
 34
0.0
 15
0.0
 25
0.0
 35
0.0
146
0.0
 13
0.0
 23
0.0
 33
0.0
 16
1.0
 26
0.0
 36
0.0
 17
0.0
 27
1.0
 37
0.0
 76
     0
330
D2
  0
LAYOUT
  5
D7
102
{ACAD_REACTORS
330
1A
102
}
330
1A
100
AcDbPlotSettings
  1

  2
C:\Documents and Settings\basas\Application Data\Autodesk\AutoCAD 2005\R16.1\enu\plotters\Default Windows System Printer.pc3
  4

  6

 40
0.0
 41
0.0
 42
0.0
 43
0.0
 44
0.0
 45
0.0
 46
0.0
 47
0.0
 48
0.0
 49
0.0
140
0.0
141
0.0
142
1.0
143
1.0
 70
   688
 72
     0
 73
     0
 74
     5
  7

 75
    16
147
1.0
 76
     0
 77
     2
 78
   300
148
0.0
149
0.0
100
AcDbLayout
  1
布局2
 70
     1
 71
     2
 10
0.0
 20
0.0
 11
12.0
 21
9.0
 12
0.0
 22
0.0
 32
0.0
 14
0.0
 24
0.0
 34
0.0
 15
0.0
 25
0.0
 35
0.0
146
0.0
 13
0.0
 23
0.0
 33
0.0
 16
1.0
 26
0.0
 36
0.0
 17
0.0
 27
1.0
 37
0.0
 76
     0
330
D6
  0
MATERIAL
  5
EE
102
{ACAD_REACTORS
330
6A
102
}
330
6A
100
AcDbMaterial
  1
ByBlock
  0
MATERIAL
  5
ED
102
{ACAD_REACTORS
330
6A
102
}
330
6A
100
AcDbMaterial
  1
ByLayer
  0
MATERIAL
  5
EF
102
{ACAD_REACTORS
330
6A
102
}
330
6A
100
AcDbMaterial
  1
Global
  0
MLINESTYLE
  5
18
102
{ACAD_REACTORS
330
17
102
}
330
17
100
AcDbMlineStyle
  2
STANDARD
 70
     0
  3

 62
   256
 51
90.0
 52
90.0
 71
     2
 49
0.5
 62
   256
  6
BYLAYER
 49
-0.5
 62
   256
  6
BYLAYER
  0
ACDBPLACEHOLDER
  5
F
102
{ACAD_REACTORS
330
E
102
}
330
E
  0
TABLESTYLE
  5
7F
102
{ACAD_REACTORS
330
7E
102
}
330
7E
100
AcDbTableStyle
  3
Standard
 70
     0
 71
     0
 40
1.5
 41
1.5
280
     0
281
     0
  7
Standard
140
4.5
170
     2
 62
     0
 63
     7
283
     0
 90
      512
 91
        0
  1

274
    -2
284
     1
 64
     0
275
    -2
285
     1
 65
     0
276
    -2
286
     1
 66
     0
277
    -2
287
     1
 67
     0
278
    -2
288
     1
 68
     0
279
    -2
289
     1
 69
     0
  7
Standard
140
6.0
170
     5
 62
     0
 63
     7
283
     0
 90
      512
 91
        0
  1

274
    -2
284
     1
 64
     0
275
    -2
285
     1
 65
     0
276
    -2
286
     1
 66
     0
277
    -2
287
     1
 67
     0
278
    -2
288
     1
 68
     0
279
    -2
289
     1
 69
     0
  7
Standard
140
4.5
170
     5
 62
     0
 63
     7
283
     0
 90
      512
 91
        0
  1

274
    -2
284
     1
 64
     0
275
    -2
285
     1
 65
     0
276
    -2
286
     1
 66
     0
277
    -2
287
     1
 67
     0
278
    -2
288
     1
 68
     0
279
    -2
289
     1
 69
     0
  0
VISUALSTYLE
  5
F6
102
{ACAD_REACTORS
330
F0
102
}
330
F0
100
AcDbVisualStyle
  2
2dWireframe
 70
     4
 71
     0
 72
     2
 73
     1
 90
        0
 40
-0.6
 41
-30.0
 62
     5
 63
     7
421
 16777215
 74
     1
 91
        4
 64
     7
 65
   257
 75
     1
175
     1
 42
1.0
 92
        0
 66
   257
 43
1.0
 76
     1
 77
     6
 78
     2
 67
     7
 79
     5
170
     0
171
     0
290
     0
174
     0
 93
        1
 44
0.0
173
     0
291
     0
 45
0.0
  0
VISUALSTYLE
  5
F8
102
{ACAD_REACTORS
330
F0
102
}
330
F0
100
AcDbVisualStyle
  2
3D Hidden
 70
     6
 71
     1
 72
     2
 73
     2
 90
        0
 40
-0.6
 41
-30.0
 62
     5
 63
     7
421
 16777215
 74
     2
 91
        2
 64
     7
 65
   257
 75
     2
175
     1
 42
40.0
 92
        0
 66
   257
 43
1.0
 76
     1
 77
     6
 78
     2
 67
     7
 79
     3
170
     0
171
     0
290
     0
174
     0
 93
        1
 44
0.0
173
     0
291
     0
 45
0.0
  0
VISUALSTYLE
  5
F7
102
{ACAD_REACTORS
330
F0
102
}
330
F0
100
AcDbVisualStyle
  2
3dWireframe
 70
     5
 71
     0
 72
     2
 73
     1
 90
        0
 40
-0.6
 41
-30.0
 62
     5
 63
     7
421
 16777215
 74
     1
 91
        4
 64
     7
 65
   257
 75
     1
175
     1
 42
1.0
 92
        0
 66
   257
 43
1.0
 76
     1
 77
     6
 78
     2
 67
     7
 79
     5
170
     0
171
     0
290
     0
174
     0
 93
        1
 44
0.0
173
     0
291
     0
 45
0.0
  0
VISUALSTYLE
  5
F5
102
{ACAD_REACTORS
330
F0
102
}
330
F0
100
AcDbVisualStyle
  2
Basic
 70
     7
 71
     1
 72
     0
 73
     1
 90
        0
 40
-0.6
 41
-30.0
 62
     5
 63
     7
421
 16777215
 74
     0
 91
        4
 64
     7
 65
   257
 75
     1
175
     1
 42
1.0
 92
        8
 66
     7
 43
1.0
 76
     1
 77
     6
 78
     2
 67
     7
 79
     5
170
     0
171
     0
290
     0
174
     0
 93
        1
 44
0.0
173
     0
291
     1
 45
0.0
  0
VISUALSTYLE
  5
FC
102
{ACAD_REACTORS
330
F0
102
}
330
F0
100
AcDbVisualStyle
  2
Brighten
 70
    12
 71
     2
 72
     2
 73
     1
 90
        0
 40
-0.6
 41
-30.0
 62
     5
 63
     7
421
 16777215
 74
     1
 91
        4
 64
     7
 65
   257
 75
     1
175
     1
 42
1.0
 92
        8
 66
     7
 43
1.0
 76
     1
 77
     6
 78
     2
 67
     7
 79
     5
170
     0
171
     0
290
     0
174
     0
 93
        1
 44
50.0
173
     0
291
     1
 45
0.0
  0
VISUALSTYLE
  5
100
102
{ACAD_REACTORS
330
F0
102
}
330
F0
100
AcDbVisualStyle
  2
ColorChange
 70
    16
 71
     2
 72
     2
 73
     3
 90
        0
 40
-0.6
 41
-30.0
 62
     5
 63
     8
421
  8421504
 74
     1
 91
        4
 64
     7
 65
   257
 75
     1
175
     1
 42
1.0
 92
        8
 66
     8
424
  8421504
 43
1.0
 76
     1
 77
     6
 78
     2
 67
     7
 79
     5
170
     0
171
     0
290
     0
174
     0
 93
        1
 44
0.0
173
     0
291
     1
 45
0.0
  0
VISUALSTYLE
  5
F9
102
{ACAD_REACTORS
330
F0
102
}
330
F0
100
AcDbVisualStyle
  2
Conceptual
 70
     9
 71
     3
 72
     2
 73
     1
 90
        0
 40
-0.6
 41
-30.0
 62
     5
 63
     7
421
 16777215
 74
     2
 91
        2
 64
     7
 65
   257
 75
     1
175
     1
 42
40.0
 92
        8
 66
     7
 43
1.0
 76
     1
 77
     6
 78
     2
 67
     7
 79
     3
170
     0
171
     0
290
     0
174
     0
 93
        1
 44
0.0
173
     0
291
     0
 45
0.0
  0
VISUALSTYLE
  5
FB
102
{ACAD_REACTORS
330
F0
102
}
330
F0
100
AcDbVisualStyle
  2
Dim
 70
    11
 71
     2
 72
     2
 73
     1
 90
        0
 40
-0.6
 41
-30.0
 62
     5
 63
     7
421
 16777215
 74
     1
 91
        4
 64
     7
 65
   257
 75
     1
175
     1
 42
1.0
 92
        8
 66
     7
 43
1.0
 76
     1
 77
     6
 78
     2
 67
     7
 79
     5
170
     0
171
     0
290
     0
174
     0
 93
        1
 44
-50.0
173
     0
291
     1
 45
0.0
  0
VISUALSTYLE
  5
FF
102
{ACAD_REACTORS
330
F0
102
}
330
F0
100
AcDbVisualStyle
  2
Facepattern
 70
    15
 71
     2
 72
     2
 73
     1
 90
        0
 40
-0.6
 41
-30.0
 62
     5
 63
     7
421
 16777215
 74
     1
 91
        4
 64
     7
 65
   257
 75
     1
175
     1
 42
1.0
 92
        8
 66
     7
 43
1.0
 76
     1
 77
     6
 78
     2
 67
     7
 79
     5
170
     0
171
     0
290
     0
174
     0
 93
        1
 44
0.0
173
     0
291
     1
 45
0.0
  0
VISUALSTYLE
  5
F1
102
{ACAD_REACTORS
330
F0
102
}
330
F0
100
AcDbVisualStyle
  2
Flat
 70
     0
 71
     2
 72
     1
 73
     1
 90
        2
 40
-0.6
 41
30.0
 62
     5
 63
     7
421
 16777215
 74
     0
 91
        4
 64
     7
 65
   257
 75
     1
175
     1
 42
1.0
 92
        8
 66
     7
 43
1.0
 76
     1
 77
     6
 78
     2
 67
     7
 79
     5
170
     0
171
     0
290
     0
174
     0
 93
        1
 44
0.0
173
     0
291
     1
 45
0.0
  0
VISUALSTYLE
  5
F2
102
{ACAD_REACTORS
330
F0
102
}
330
F0
100
AcDbVisualStyle
  2
FlatWithEdges
 70
     1
 71
     2
 72
     1
 73
     1
 90
        2
 40
-0.6
 41
30.0
 62
     5
 63
     7
421
 16777215
 74
     1
 91
        4
 64
     7
 65
   257
 75
     1
175
     1
 42
1.0
 92
        0
 66
   257
 43
1.0
 76
     1
 77
     6
 78
     2
 67
     7
 79
     5
170
     0
171
     0
290
     0
174
     0
 93
        1
 44
0.0
173
     0
291
     1
 45
0.0
  0
VISUALSTYLE
  5
F3
102
{ACAD_REACTORS
330
F0
102
}
330
F0
100
AcDbVisualStyle
  2
Gouraud
 70
     2
 71
     2
 72
     2
 73
     1
 90
        2
 40
-0.6
 41
30.0
 62
     5
 63
     7
421
 16777215
 74
     0
 91
        4
 64
     7
 65
   257
 75
     1
175
     1
 42
1.0
 92
        0
 66
     7
 43
1.0
 76
     1
 77
     6
 78
     2
 67
     7
 79
     5
170
     0
171
     0
290
     0
174
     0
 93
        1
 44
0.0
173
     0
291
     1
 45
0.0
  0
VISUALSTYLE
  5
F4
102
{ACAD_REACTORS
330
F0
102
}
330
F0
100
AcDbVisualStyle
  2
GouraudWithEdges
 70
     3
 71
     2
 72
     2
 73
     1
 90
        2
 40
-0.6
 41
30.0
 62
     5
 63
     7
421
 16777215
 74
     1
 91
        4
 64
     7
 65
   257
 75
     1
175
     1
 42
1.0
 92
        0
 66
   257
 43
1.0
 76
     1
 77
     6
 78
     2
 67
     7
 79
     5
170
     0
171
     0
290
     0
174
     0
 93
        1
 44
0.0
173
     0
291
     1
 45
0.0
  0
VISUALSTYLE
  5
FE
102
{ACAD_REACTORS
330
F0
102
}
330
F0
100
AcDbVisualStyle
  2
Linepattern
 70
    14
 71
     2
 72
     2
 73
     1
 90
        0
 40
-0.6
 41
-30.0
 62
     5
 63
     7
421
 16777215
 74
     1
 91
        4
 64
     7
 65
   257
 75
     7
175
     7
 42
1.0
 92
        8
 66
     7
 43
1.0
 76
     1
 77
     6
 78
     2
 67
     7
 79
     5
170
     0
171
     0
290
     0
174
     0
 93
        1
 44
0.0
173
     0
291
     1
 45
0.0
  0
VISUALSTYLE
  5
FA
102
{ACAD_REACTORS
330
F0
102
}
330
F0
100
AcDbVisualStyle
  2
Realistic
 70
     8
 71
     2
 72
     2
 73
     1
 90
        0
 40
-0.6
 41
-30.0
 62
     5
 63
     7
421
 16777215
 74
     1
 91
        0
 64
     7
 65
   257
 75
     1
175
     1
 42
1.0
 92
        8
 66
     8
424
  7895160
 43
1.0
 76
     1
 77
     6
 78
     2
 67
     7
 79
     5
170
     0
171
     0
290
     0
174
     0
 93
       13
 44
0.0
173
     0
291
     0
 45
0.0
  0
VISUALSTYLE
  5
FD
102
{ACAD_REACTORS
330
F0
102
}
330
F0
100
AcDbVisualStyle
  2
Thicken
 70
    13
 71
     2
 72
     2
 73
     1
 90
        0
 40
-0.6
 41
-30.0
 62
     5
 63
     7
421
 16777215
 74
     1
 91
        4
 64
     7
 65
   257
 75
     1
175
     1
 42
1.0
 92
       12
 66
     7
 43
1.0
 76
     1
 77
     6
 78
     2
 67
     7
 79
     5
170
     0
171
     0
290
     0
174
     0
 93
        1
 44
0.0
173
     0
291
     1
 45
0.0
  0
DICTIONARYVAR
  5
84
102
{ACAD_REACTORS
330
5E
102
}
330
5E
100
DictionaryVariables
280
     0
  1
STANDARD
  0
DICTIONARYVAR
  5
5F
102
{ACAD_REACTORS
330
5E
102
}
330
5E
100
DictionaryVariables
280
     0
  1
2
  0
DICTIONARYVAR
  5
63
102
{ACAD_REACTORS
330
5E
102
}
330
5E
100
DictionaryVariables
280
     0
  1
1
  0
ENDSEC
  0
EOF
